<svg width="27" height="26" viewBox="0 0 27 26" fill="none" xmlns="http://www.w3.org/2000/svg">
<path fill-rule="evenodd" clip-rule="evenodd" d="M14.0139 20.253V12.853H16.5419L16.9059 9.959H14.0139V8.153C14.0139 7.34 14.2849 6.708 15.4589 6.708H16.9939V4.09C16.6319 4.09 15.7289 4 14.7359 4C14.2334 3.96688 13.7298 4.04303 13.2597 4.22319C12.7895 4.40335 12.3639 4.68325 12.0123 5.04363C11.6607 5.40401 11.3913 5.8363 11.2227 6.31075C11.0542 6.78521 10.9904 7.29055 11.0359 7.792V9.959H8.50586V12.849H11.0339V20.249L14.0139 20.253Z" fill="white"/>
<path d="M13.4424 25C20.0698 25 25.4424 19.6274 25.4424 13C25.4424 6.37258 20.0698 1 13.4424 1C6.81497 1 1.44238 6.37258 1.44238 13C1.44238 19.6274 6.81497 25 13.4424 25Z" stroke="white" stroke-width="2"/>
</svg>
