<svg width="27" height="26" viewBox="0 0 27 26" fill="none" xmlns="http://www.w3.org/2000/svg">
<path d="M13.4424 25C20.0698 25 25.4424 19.6274 25.4424 13C25.4424 6.37258 20.0698 1 13.4424 1C6.81497 1 1.44238 6.37258 1.44238 13C1.44238 19.6274 6.81497 25 13.4424 25Z" stroke="white" stroke-width="2"/>
<path d="M13.3504 7.032C15.3064 7.032 15.5384 7.039 16.3114 7.075C16.7149 7.03684 17.1218 7.08823 17.5031 7.2255C17.8845 7.36277 18.2308 7.58253 18.5173 7.8691C18.8039 8.15567 19.0237 8.50198 19.1609 8.88329C19.2982 9.26461 19.3496 9.67153 19.3114 10.075C19.3464 10.847 19.3534 11.075 19.3534 13.036C19.3534 14.997 19.3464 15.224 19.3114 15.997C19.3496 16.4005 19.2982 16.8074 19.1609 17.1887C19.0237 17.57 18.8039 17.9163 18.5173 18.2029C18.2308 18.4895 17.8845 18.7092 17.5031 18.8465C17.1218 18.9838 16.7149 19.0352 16.3114 18.997C15.5384 19.032 15.3114 19.04 13.3504 19.04C11.3894 19.04 11.1624 19.033 10.3894 18.997C9.98597 19.0352 9.57905 18.9838 9.19773 18.8465C8.81642 18.7092 8.47011 18.4895 8.18354 18.2029C7.89697 17.9163 7.6772 17.57 7.53993 17.1887C7.40266 16.8074 7.35128 16.4005 7.38944 15.997C7.35444 15.225 7.34644 14.997 7.34644 13.036C7.34644 11.075 7.35444 10.848 7.38944 10.075C7.35128 9.67153 7.40266 9.26461 7.53993 8.88329C7.6772 8.50198 7.89697 8.15567 8.18354 7.8691C8.47011 7.58253 8.81642 7.36277 9.19773 7.2255C9.57905 7.08823 9.98597 7.03684 10.3894 7.075C11.1624 7.04 11.3894 7.033 13.3504 7.033V7.032ZM13.3504 5.711C11.3604 5.711 11.1114 5.72 10.3304 5.755C9.76247 5.72346 9.19424 5.8121 8.66286 6.01513C8.13148 6.21816 7.64891 6.531 7.24668 6.93324C6.84444 7.33547 6.53159 7.81804 6.32857 8.34942C6.12554 8.8808 6.0369 9.44903 6.06844 10.017C6.03244 10.799 6.02344 11.048 6.02344 13.038C6.02344 15.028 6.03244 15.278 6.06744 16.059C6.0359 16.627 6.12454 17.1952 6.32757 17.7266C6.53059 18.258 6.84344 18.7405 7.24568 19.1428C7.64791 19.545 8.13048 19.8578 8.66186 20.0609C9.19323 20.2639 9.76147 20.3525 10.3294 20.321C11.1114 20.356 11.3604 20.365 13.3504 20.365C15.3404 20.365 15.5904 20.356 16.3714 20.321C16.9393 20.3524 17.5074 20.2636 18.0387 20.0606C18.57 19.8575 19.0524 19.5446 19.4545 19.1424C19.8567 18.7402 20.1694 18.2576 20.3724 17.7263C20.5753 17.195 20.664 16.6269 20.6324 16.059C20.6684 15.277 20.6774 15.028 20.6774 13.038C20.6774 11.048 20.6684 10.799 20.6334 10.018C20.665 9.45003 20.5763 8.8818 20.3733 8.35042C20.1703 7.81904 19.8574 7.33647 19.4552 6.93424C19.053 6.532 18.5704 6.21916 18.039 6.01613C17.5076 5.8131 16.9394 5.72446 16.3714 5.756C15.5894 5.72 15.3394 5.711 13.3504 5.711ZM13.3504 9.275C12.6061 9.2748 11.8784 9.49535 11.2595 9.90876C10.6405 10.3222 10.158 10.9099 9.87307 11.5975C9.58813 12.2851 9.51353 13.0418 9.65869 13.7719C9.80386 14.5019 10.1623 15.1725 10.6886 15.6988C11.2149 16.2252 11.8855 16.5836 12.6156 16.7287C13.3456 16.8739 14.1023 16.7993 14.7899 16.5144C15.4776 16.2294 16.0653 15.747 16.4787 15.128C16.8921 14.509 17.1126 13.7813 17.1124 13.037C17.1124 12.543 17.0151 12.0538 16.8261 11.5973C16.637 11.1409 16.3599 10.7262 16.0106 10.3769C15.6612 10.0275 15.2465 9.75042 14.7901 9.56136C14.3337 9.37231 13.8445 9.275 13.3504 9.275ZM13.3504 15.475C12.8672 15.475 12.3949 15.3316 11.9932 15.0631C11.5915 14.7945 11.2785 14.4129 11.0938 13.9664C10.9092 13.5198 10.8611 13.0286 10.9557 12.5547C11.0504 12.0809 11.2834 11.6458 11.6255 11.3045C11.9675 10.9632 12.4031 10.731 12.8771 10.6373C13.3511 10.5437 13.8423 10.5927 14.2884 10.7783C14.7345 10.9639 15.1156 11.2777 15.3833 11.6799C15.651 12.0822 15.7934 12.5548 15.7924 13.038C15.7924 13.6857 15.5352 14.3068 15.0772 14.7648C14.6192 15.2227 13.9981 15.48 13.3504 15.48V15.475ZM17.2614 8.243C17.0876 8.243 16.9176 8.29455 16.7731 8.39114C16.6285 8.48772 16.5159 8.625 16.4493 8.78562C16.3828 8.94624 16.3654 9.12297 16.3993 9.29348C16.4332 9.46399 16.517 9.62062 16.6399 9.74355C16.7628 9.86648 16.9194 9.95019 17.09 9.98411C17.2605 10.018 17.4372 10.0006 17.5978 9.93409C17.7584 9.86756 17.8957 9.7549 17.9923 9.61034C18.0889 9.46579 18.1404 9.29585 18.1404 9.122C18.1389 8.88982 18.0456 8.66768 17.8809 8.50397C17.7163 8.34026 17.4936 8.24826 17.2614 8.248V8.243Z" fill="white"/>
</svg>
