<svg width="28" height="26" viewBox="0 0 28 26" fill="none" xmlns="http://www.w3.org/2000/svg">
<path d="M22.1934 8.415V17.02C22.1892 17.0839 22.1619 17.144 22.1166 17.1893C22.0714 17.2345 22.0112 17.2618 21.9474 17.266H21.8244C21.7014 17.266 21.7014 17.266 21.5784 17.143L18.5064 14.07V16.405C18.5064 16.651 18.3834 16.774 18.2604 17.02C18.0447 17.1744 17.7875 17.2601 17.5224 17.266H8.42538C8.19731 17.2614 7.9787 17.174 7.81038 17.02C7.56538 16.774 7.44238 16.651 7.44238 16.405V9.029C7.4472 8.80127 7.53463 8.58306 7.68838 8.415C7.77153 8.29775 7.88225 8.20276 8.01077 8.13841C8.1393 8.07406 8.28169 8.04232 8.42538 8.046H17.6424C17.8705 8.05057 18.0891 8.13802 18.2574 8.292C18.3938 8.51638 18.4779 8.76864 18.5034 9.03V11.365L21.7034 8.165C21.7034 8.042 21.8264 8.042 21.9494 8.042C22.0714 8.169 22.1934 8.169 22.1934 8.415Z" fill="white"/>
<path d="M13.9424 24.999C20.8459 24.999 26.4424 19.6264 26.4424 12.999C26.4424 6.37158 20.8459 0.999001 13.9424 0.999001C7.03882 0.999001 1.44238 6.37158 1.44238 12.999C1.44238 19.6264 7.03882 24.999 13.9424 24.999Z" stroke="white" stroke-width="2"/>
</svg>
